<svg width="640" height="180" viewBox="0 0 640 180" fill="none" xmlns="http://www.w3.org/2000/svg" role="img" aria-labelledby="title desc">
  <title id="title">LyricBlow Logo</title>
  <desc id="desc">Minimal LyricBlow wordmark with a soft paint blot background.</desc>
  <defs>
    <radialGradient id="blot" cx="0" cy="0" r="1" gradientUnits="userSpaceOnUse" gradientTransform="translate(338 92) rotate(7) scale(248 98)">
      <stop stop-color="#7CF0FF" stop-opacity="0.42"/>
      <stop offset="1" stop-color="#7CF0FF" stop-opacity="0.09"/>
    </radialGradient>
    <linearGradient id="word" x1="96" y1="96" x2="548" y2="96" gradientUnits="userSpaceOnUse">
      <stop stop-color="#F0F5FF"/>
      <stop offset="1" stop-color="#7CF0FF"/>
    </linearGradient>
  </defs>

  <rect x="1" y="1" width="638" height="178" rx="16" fill="#0E131F" stroke="#2A3A4A" stroke-width="2"/>
  <path d="M132 36C184 16 246 20 306 34C356 46 400 46 456 40C516 34 568 52 586 92C604 132 566 162 518 168C464 174 420 156 360 154C294 152 246 174 184 164C126 156 80 116 94 80C100 62 114 44 132 36Z" fill="url(#blot)"/>
  <text x="92" y="113" fill="url(#word)" font-family="'Segoe UI', Arial, sans-serif" font-size="72" font-weight="820">LyricBlow</text>
</svg>
